<svg xmlns="http://www.w3.org/2000/svg" version="1.1" xmlns:xlink="http://www.w3.org/1999/xlink" xmlns:svgjs="http://svgjs.com/svgjs" width="550" height="1000" preserveAspectRatio="none" viewBox="0 0 550 1000"><g mask="url(&quot;#SvgjsMask3712&quot;)" fill="none"><rect width="550" height="1000" x="0" y="0" fill="rgba(139, 0, 0, 1)"></rect><circle r="5.235" cx="358.245" cy="367.365" filter="url(#SvgjsFilter3713)" fill="rgba(216, 216, 222, 0.36)"></circle><circle r="6.335" cx="474.28499999999997" cy="472.36499999999995" filter="url(#SvgjsFilter3713)" fill="rgba(216, 216, 222, 0.36)"></circle><circle r="5.82" cx="51.43" cy="334.09" filter="url(#SvgjsFilter3713)" fill="rgba(216, 216, 222, 0.36)"></circle><circle r="5.29" cx="223.89" cy="812.88" filter="url(#SvgjsFilter3713)" fill="rgba(216, 216, 222, 0.36)"></circle><circle r="7.85" cx="354.22" cy="354.81" filter="url(#SvgjsFilter3713)" fill="rgba(216, 216, 222, 0.36)"></circle><circle r="7.89" cx="423.87" cy="855.1999999999999" filter="url(#SvgjsFilter3713)" fill="rgba(216, 216, 222, 0.36)"></circle><circle r="5.78" cx="246.27" cy="386.96" filter="url(#SvgjsFilter3713)" fill="rgba(216, 216, 222, 0.36)"></circle><circle r="5.12" cx="552.07" cy="840.48" filter="url(#SvgjsFilter3713)" fill="rgba(216, 216, 222, 0.36)"></circle><circle r="5.825" cx="465.16499999999996" cy="26.895" filter="url(#SvgjsFilter3713)" fill="rgba(216, 216, 222, 0.36)"></circle><circle r="7.09" cx="340.47999999999996" cy="370.73999999999995" filter="url(#SvgjsFilter3713)" fill="rgba(216, 216, 222, 0.36)"></circle><circle r="6.23" cx="111.44" cy="614.75" filter="url(#SvgjsFilter3713)" fill="rgba(216, 216, 222, 0.36)"></circle><circle r="8.52" cx="390.51" cy="666.17" filter="url(#SvgjsFilter3713)" fill="rgba(216, 216, 222, 0.36)"></circle><circle r="5.025" cx="365.875" cy="919.465" filter="url(#SvgjsFilter3713)" fill="rgba(216, 216, 222, 0.36)"></circle><circle r="8.345" cx="424.855" cy="99.075" filter="url(#SvgjsFilter3713)" fill="rgba(216, 216, 222, 0.36)"></circle><circle r="5.34" cx="32.39" cy="515.02" filter="url(#SvgjsFilter3713)" fill="rgba(216, 216, 222, 0.36)"></circle><circle r="8.755" cx="244.165" cy="577.655" filter="url(#SvgjsFilter3713)" fill="rgba(216, 216, 222, 0.36)"></circle><circle r="6.05" cx="277.44" cy="617.4599999999999" filter="url(#SvgjsFilter3713)" fill="rgba(216, 216, 222, 0.36)"></circle><circle r="7.115" cx="182.63500000000002" cy="884.865" filter="url(#SvgjsFilter3713)" fill="rgba(216, 216, 222, 0.36)"></circle><circle r="6.2" cx="71.87" cy="169.76" filter="url(#SvgjsFilter3713)" fill="rgba(216, 216, 222, 0.36)"></circle><circle r="5.355" cx="167.295" cy="587.535" filter="url(#SvgjsFilter3713)" fill="rgba(216, 216, 222, 0.36)"></circle><path d="M364.4 827.5L339.1 802.7 339.3 789.7 347.8 798.1C348.4 799.3 349.8 799 351 798.3 351.5 797.5 351.6 795.9 350.8 795.3L339.3 783.5 339 770.8 350 777.3 354.2 793.3C354.2 793.3 354.5 793.7 354.5 793.7 354.9 794.5 356.1 794.8 357.1 794.7 358.3 794.1 358.8 793.2 358.5 791.8L355.4 780.3 366.4 786.8 375.9 820.8C375.9 820.8 375.8 821.4 375.8 821.4 376.2 822.2 377.4 822.5 378.4 822.4 379.8 822.2 380.5 820.7 379.8 819.6L371.7 789.8 385.4 797.3 389 810.6C389 810.6 389 810.6 389.2 811 389.7 811.8 390.5 812.3 391.5 812.2 392.7 811.6 393.6 810.5 393.3 809.1L390.7 800.3 400.7 805.9C401.7 806.8 402.9 806.1 403.4 805.3 404.3 804.2 404 802.9 402.6 802.2L393.1 796.4 401.7 794.5C402.9 793.8 403.8 792.7 403.1 791.6 402.8 790.2 402 789.7 400.6 789.9L387.3 793.6 374.1 785.9 404.2 777.6C405.2 777.5 405.9 776.1 405.6 774.7 405.2 773.9 404.1 773 402.7 773.3L368.7 782.8 357.7 776.4 369.3 773.2C370.7 772.9 371 771.7 370.7 770.4 370.6 769.4 369.2 768.7 368.2 768.7L352.4 773.3 341 767.1 352.1 760.6 367.9 764.8C369.2 765.1 370.3 764.4 370.6 763.2 371.2 762.4 370.3 760.8 369.1 760.5L357.5 757.5 368.6 751 402.9 760.3C404.1 760.6 405.3 760 405.6 758.8 405.9 757.5 405.2 756.4 404 756.1L374 747.8 387.1 740.2 400.4 743.7C401.7 744.1 402.8 743.4 403.1 742.2 403.5 741 402.8 739.8 401.6 739.5L392.8 736.9 402.4 731.3C403.6 730.6 403.9 729.4 403.2 728.2 402.6 727.1 401.3 726.8 400.2 727.4L390.6 733 392.8 724.5C393.2 723.3 392.5 722.1 391.3 721.8S388.9 722.2 388.6 723.4L385.2 736.2 371.8 744 379.6 714.2C379.9 713 379.3 711.8 378.1 711.5 376.8 711.2 375.7 711.9 375.4 713.1L366.4 747.1 355.3 753.6 358.3 742.1C358.6 740.9 358 739.7 356.7 739.4 355.5 739.1 354.4 739.7 354.1 740.9L349.9 756.8 339.1 763 339.1 750.7 350.7 738.8C351.3 737.9 351.4 736.3 350.5 735.8 349.5 734.9 348.5 734.9 347.3 735.6L338.9 744.1 338.9 731.8 363.8 706.5C364.7 705.4 364.7 704.4 364 703.3 362.9 702.3 361.6 702.6 360.8 703.1L338.7 725.2 338.9 709.7 348.2 700.1C349.4 699.4 349.1 698 348.4 696.9 347.6 696.3 346 696.3 345.1 697.3L338.9 703.5 338.6 692.3C338.9 691.1 337.9 690.2 336.3 690.1 335.3 690.2 334.3 691.2 334.4 692.2L334.3 703.6 327.9 697C326.9 696.1 325.5 696.4 325 697.2 323.8 697.9 323.9 698.9 324.3 699.6 324.5 700 324.5 700 324.8 700.4L334.3 709.8 334.1 725.3 312.2 703.6C311.6 702.4 310.2 702.7 309 703.4 308.5 704.2 308.5 705.2 309 706 309.2 706.4 309.2 706.4 309.2 706.4L334.4 731.9 334.3 744.2 325.8 735.8C324.8 734.9 323.8 734.9 322.6 735.6 322.1 736.4 321.8 737.6 322.2 738.4 322.5 738.8 322.5 738.8 322.7 739.2L334.6 750.8 334.6 763.1 323.8 757 319.2 741.2C318.9 739.8 317.5 739.1 316.5 739.2 315.3 739.8 314.4 740.9 315.1 742.1L318.2 753.6 307.1 747.7 297.7 713.1C297.6 712.1 296.2 711.4 295.2 711.5 294 712.1 293.1 713.2 293.4 714.6L301.5 744.3 288.3 736.6 284.8 723.7C284.5 722.3 283.1 721.6 282 722.3 281 722.3 280 723.4 280.3 724.8L282.9 733.6 273 728C272.1 727.5 270.8 727.8 269.8 728.8 269.7 729.4 269.7 730.4 270.2 731.2 270.2 731.2 270.4 731.6 270.6 732L280.5 737.5 271.7 740.1C270.8 740.1 270 741.6 270.1 742.6 270.3 742.9 270.3 742.9 270.3 742.9 271 744.1 272.2 744.4 273 744L285.9 740.5 299.5 748 269.4 756.3C268.3 757 267.7 757.8 268 759.2 268 759.2 268.2 759.6 268.2 759.6 268.7 760.4 269.5 760.9 270.9 760.6L305.1 751.5 315.9 757.5 304.3 760.7C303.2 761.3 302.3 762.4 302.9 763.6 302.5 763.8 302.8 764.2 302.8 764.2 303.2 764.9 304.4 765.2 305.4 765.2L321.3 760.6 332.2 767 321.5 773.3 305.7 769.2C304.5 768.8 302.9 769.7 302.6 770.9 302.7 771.9 303.3 773.1 304.2 773.6L316.1 776.4 305 782.9 270.9 774C269.7 773.7 268.6 774.3 268.2 775.5 267.9 776.8 268.6 777.9 269.8 778.2L299.6 786.1 286.2 793.9 273.4 790.5C272.2 790.2 271 790.9 270.7 792.1S271.1 794.5 272.3 794.8L280.8 797 271.2 802.6C270 803.3 269.7 804.5 270.4 805.7 271.1 806.8 272.3 807.1 273.4 806.5L283 800.9 281 809.8C280.8 810.4 280.7 811 280.9 811.4 281.1 811.8 282 812.3 282.6 812.5 283.8 812.8 284.9 812.1 285.3 810.9L288.4 797.7 301.8 789.9 294.2 820.1C294 820.7 293.9 821.3 294.1 821.7 294.3 822.1 295.2 822.6 295.8 822.8 297 823.1 298.1 822.4 298.5 821.2L307.2 786.8 318.3 780.3 314.9 792.1C314.8 792.7 315.2 793.4 315.4 793.8 315.7 794.2 315.9 794.6 316.5 794.7 317.7 795.1 319.2 794.2 319.2 793.2L323.7 777.2 334.5 770.9 334.7 783.6 322.9 795.1C322.3 796 322 797.2 322.5 797.9 322.7 798.3 322.7 798.3 323.1 798.1 323.7 799.3 325.3 799.4 326.3 798.3L334.7 789.8 334.9 802.5 309.4 827.7C308.9 828.5 309 829.5 309.4 830.3 309.6 830.6 309.6 830.6 309.6 830.6 310.7 831.6 311.9 831.9 312.8 830.8L334.9 808.7 334.7 824.2 325.4 833.8C324.4 834.9 324.5 835.9 324.9 836.6 324.9 836.6 325.2 837 325.2 837 326.2 837.9 327.6 837.7 328.4 837.2L334.7 830.4 334.6 841.8C334.9 842.2 335.1 842.5 335.3 842.9 335.5 843.3 336.4 843.9 337 844 338.4 843.7 339.5 843.1 339.2 841.7L339.3 830.3 345.7 836.9C346.7 837.8 348.1 837.5 348.9 837.1 349.8 836 349.5 834.7 348.8 833.5L339.3 824.2 339.1 808.8 361 830.5C362.1 831.5 363.7 831.6 364.2 830.7 365.1 829.7 365.5 828.4 364.4 827.5Z" fill="rgba(216, 216, 222, 0.36)"></path><path d="M187.4 633.3L169.2 658.5 158 660.1 164.2 651.6C165.1 650.9 164.6 649.7 163.9 648.8 163.1 648.5 161.7 648.6 161.4 649.4L152.7 660.9 141.7 662.8 145.8 652.5 159.2 646.7C159.2 646.7 159.5 646.4 159.5 646.4 160.1 645.9 160.2 644.9 160 644 159.3 643.1 158.5 642.7 157.3 643.2L147.7 647.4 151.9 637.1 180.1 624.3C180.1 624.3 180.6 624.3 180.6 624.3 181.2 623.8 181.3 622.7 181.1 621.9 180.7 620.7 179.4 620.3 178.5 621.1L153.8 632 158.5 619.2 169.5 614.3C169.5 614.3 169.5 614.3 169.8 614.1 170.4 613.6 170.8 612.8 170.6 611.9 169.8 611 168.8 610.4 167.6 610.8L160.4 614.2 163.8 604.9C164.5 603.8 163.8 602.9 163 602.6 161.9 601.9 160.8 602.3 160.4 603.7L156.7 612.7 153.8 605.5C153.1 604.6 152.1 603.9 151.2 604.6 150 605.1 149.6 605.9 150.1 607L155 618 150.1 630.5 138.9 605.6C138.7 604.7 137.4 604.3 136.2 604.7 135.6 605.2 134.9 606.2 135.4 607.4L148.2 635.6 144 645.9 139.8 636.3C139.4 635.2 138.3 635.1 137.1 635.5 136.3 635.7 135.8 637 136 637.9L142.1 651 138.2 661.6 131.1 652.9 132.6 638.6C132.8 637.5 132 636.6 130.9 636.5 130.1 636.2 128.9 637.1 128.8 638.2L127.7 648.6 120.6 639.9 124.1 609C124.3 607.9 123.5 607 122.4 606.9 121.3 606.7 120.4 607.5 120.3 608.6L117.2 635.6 108.9 625.3 110.1 613.3C110.3 612.2 109.5 611.3 108.4 611.2 107.3 611.1 106.4 611.8 106.3 612.9L105.2 620.8 99.1 613.2C98.4 612.3 97.3 612.2 96.4 613 95.4 613.7 95.3 614.8 96.1 615.7L102.2 623.3 94.5 622.4C93.4 622.3 92.5 623.1 92.4 624.2S93 626.2 94.1 626.3L105.6 627.5 114.2 638.1 87.4 635.2C86.3 635.1 85.4 635.9 85.3 637 85.1 638 85.9 639 87 639.1L117.6 642.3 124.7 651.1 114.3 650C113.2 649.9 112.3 650.6 112.2 651.7 112.1 652.8 112.8 653.7 113.9 653.8L128.1 655.3 135 663.8 124.3 665.4 112.5 657C111.7 656.6 110.3 656.7 109.9 657.5 109.2 658.6 109.4 659.4 110.2 660.3L118.6 666.5 108 668.1 82.8 650C81.7 649.3 80.9 649.5 80 650.2 79.3 651.3 79.8 652.4 80.2 653L102.3 669.2 88.8 671.1 79.3 664.3C78.6 663.3 77.4 663.8 76.5 664.5 76.2 665.3 76.3 666.7 77.3 667.4L83.5 671.9 73.9 673.6C72.8 673.5 72.2 674.6 72.3 676 72.5 676.8 73.5 677.5 74.4 677.3L84.2 675.8 79.4 682.2C78.7 683.3 79.1 684.4 79.9 684.8 80.7 685.7 81.5 685.5 82.1 685 82.4 684.8 82.4 684.8 82.7 684.5L89.5 675 103 673.1 87.2 694.9C86.2 695.7 86.7 696.8 87.4 697.7 88.2 698.1 89.1 697.9 89.7 697.4 90 697.2 90 697.2 90 697.2L108.6 672 119.3 670.4 113.2 678.9C112.5 679.9 112.7 680.8 113.4 681.7 114.2 682 115.3 682.2 115.9 681.7 116.2 681.4 116.2 681.4 116.5 681.2L125 669.3 135.7 667.7 131.8 677.8 118.7 683.9C117.6 684.3 117.2 685.7 117.4 686.5 118.1 687.4 119.1 688.1 120 687.4L129.6 683.1 126 693.5 97.3 706.2C96.5 706.4 96 707.8 96.2 708.6 97 709.5 98 710.2 99.1 709.8L123.8 698.8 118.9 711.3 108.2 716C107 716.4 106.6 717.7 107.3 718.6 107.5 719.5 108.6 720.2 109.7 719.7L117 716.3 113.5 725.6C113.1 726.4 113.6 727.6 114.6 728.3 115.2 728.3 116 728.1 116.6 727.6 116.6 727.6 116.9 727.4 117.2 727.1L120.7 717.8 124.1 725.1C124.3 726 125.6 726.4 126.4 726.2 126.7 725.9 126.7 725.9 126.7 725.9 127.7 725.2 127.8 724.1 127.3 723.5L122.6 712.8 127.3 700 138.5 725C139.2 725.9 140 726.2 141.1 725.8 141.1 725.8 141.4 725.6 141.4 725.6 142 725.1 142.4 724.3 142 723.1L129.5 694.7 133.3 684.6 137.6 694.2C138.3 695.1 139.3 695.7 140.2 695 140.5 695.3 140.8 695.1 140.8 695.1 141.4 694.6 141.5 693.5 141.3 692.6L135.2 679.6 139.4 669.2 146.2 677.7 144.7 691.9C144.6 693 145.6 694.2 146.7 694.3 147.5 694.1 148.4 693.4 148.8 692.6L149.6 681.9 156.7 690.7 153.5 721.3C153.4 722.4 154.1 723.3 155.2 723.4 156.3 723.5 157.2 722.8 157.3 721.7L160.2 694.9 168.7 705.5 167.5 717C167.4 718.1 168.1 719 169.2 719.1S171.2 718.5 171.3 717.4L172.1 709.7 178.3 717.3C179 718.2 180.1 718.3 181 717.6 181.9 716.8 182 715.7 181.3 714.8L175.2 707.3 183.1 707.8C183.7 707.9 184.2 707.9 184.5 707.7 184.8 707.5 185.2 706.7 185.2 706.1 185.4 705 184.6 704.1 183.5 704L171.7 703 163.2 692.5 190.3 695C190.8 695.1 191.4 695.2 191.7 694.9 192 694.7 192.3 693.9 192.4 693.3 192.5 692.2 191.8 691.3 190.7 691.2L159.8 688.2 152.7 679.5 163.3 680.9C163.8 680.9 164.5 680.4 164.8 680.2 165.1 679.9 165.4 679.7 165.4 679.1 165.5 678 164.6 676.8 163.7 677L149.2 675.2 142.4 666.8 153.4 664.9 164.9 673.6C165.7 673.9 166.8 674 167.4 673.5 167.7 673.3 167.7 673.3 167.4 673 168.4 672.3 168.2 670.9 167.2 670.2L158.7 664.1 169.7 662.2 194.8 680.9C195.6 681.2 196.5 681 197.1 680.5 197.4 680.3 197.4 680.3 197.4 680.3 198 679.3 198.1 678.2 197.1 677.5L175 661.4 188.5 659.5 198 666.3C199.1 666.9 199.9 666.7 200.5 666.3 200.5 666.3 200.8 666 200.8 666 201.5 665 201 663.8 200.6 663.2L193.8 658.6 203.7 657.2C204 656.9 204.3 656.7 204.6 656.4 204.9 656.2 205.2 655.4 205.3 654.9 204.9 653.7 204.1 652.8 203 653.2L193.2 654.7 198 648.3C198.6 647.3 198.2 646.1 197.7 645.5 196.7 644.8 195.5 645.3 194.6 646L187.8 655.5 174.6 657.7 190.4 635.9C191.1 634.8 191 633.4 190.2 633.1 189.1 632.4 188.1 632.3 187.4 633.3Z" fill="rgba(216, 216, 222, 0.36)"></path><path d="M446.6 259.1L456.8 270.9 447.6 273.1C446.7 273.2 445.8 274.3 445.8 275.7 446.4 276.9 447.5 277.7 448.6 277.1L460.2 274.9 468.5 283.7 444.5 288.4C443.3 289 442.5 290.1 442.6 291.1 443.1 292.6 444.2 293.4 445.3 292.9L471.9 287.6 484.1 301.5 462.9 303.4 478.8 317.5 460.7 321.4 442.5 301.3C442.7 300.9 442.2 300.8 441.8 300.6 441 300.3 440 300.5 439.3 301.2 438.6 301.9 438.6 303.3 439.1 304.4L455.6 322.5 443.7 324.7 435.8 316C435.5 315.4 435.1 315.3 434.7 315.1 434.3 315 433.3 315.1 432.6 315.8 431.9 316.5 431.9 317.9 432.6 318.6L438.6 325.8 423.5 329.2C422.1 329.2 421.6 330.5 421.6 331.9 421.8 332.9 422.9 333.7 424.5 333.3L439.5 330.3 436.6 339.1C436.1 340.4 437.1 341.7 438 342 439.2 342.4 440.4 341.8 440.8 340.5L444.5 329.1 456.5 327 449 349.8C448.5 351.1 449.1 352.2 450.4 352.6 451.2 352.9 452.8 352.5 453.2 351.2L461.5 325.9 479.7 322 471 341.2 490.9 334.7 485.1 352.4 458.9 357.8C457.4 358.2 457 359.5 457.1 360.5 457.3 361.4 458.4 362.3 459.8 362.3L483.5 357 479.8 368.4 468.1 371.1C466.7 371.1 465.9 372.2 466.3 373.8 466.4 374.8 467.6 375.6 469.1 375.2L478.1 373.5 473.2 388.2C472.8 389.5 473.4 390.6 474.6 391.1S477 390.9 477.4 389.6L482.3 374.9 488.5 381.6C489.5 382.9 490.9 382.9 491.6 382.2 492.9 381.2 492.9 379.8 491.7 378.9L484 369.8 487.8 358.4 503.7 376.8C504.8 377.6 506.2 377.6 506.9 376.9 508.2 375.9 508.2 374.5 507.1 373.7L489.3 353.8 495.2 336.1 507.3 353.2 511.7 332.6 524 346.5 515.6 371.8C515.2 373.1 516.2 374.4 517 374.7 518.3 375.1 519.4 374.5 519.8 373.2L527.5 350 535.7 359.3 531.9 370.7C531.5 371.9 532.1 373.1 533.3 373.5 534.2 373.8 535.7 373.3 536.1 372.1L539.1 363.2 549.4 374.6C550.3 375.8 551.8 375.8 552.6 374.7 553.3 374 553.7 372.7 552.6 371.9L542.4 360.1 551.6 358C552.6 357.8 553.4 356.7 553.3 355.7 553.1 354.8 552.4 354 552 353.9 551.6 353.8 551.1 353.6 550.6 353.9L539.1 356.2 530.7 347.4 554.8 342.7C555.9 342.1 556.7 341 556.6 340 556.4 339 555.7 338.3 554.9 338 554.5 337.9 554.5 337.9 553.9 338.2L527.4 343.4 515.1 329.5 536.3 327.7 520.4 313.5 538.5 309.7 556.7 329.7C557.4 330.4 558.7 330.8 559.9 329.9 560.6 329.2 560.6 327.7 560.1 326.6L543.6 308.5 555.5 306.4 563.4 315.1C564 316.2 565.4 316.2 566.6 315.2 567.3 314.5 567.3 313.1 566.8 312L560.6 305.3 575.8 301.9C577.2 301.8 577.6 300.6 577.6 299.2 577.3 298.6 576.6 297.9 576.2 297.8 575.7 297.6 575.3 297.5 574.8 297.8L559.7 300.8 562.7 291.9C563.1 290.6 562.1 289.4 561.2 289.1L561.2 289.1C560 288.7 558.9 289.2 558.4 290.5L554.7 301.9 542.7 304 550.3 281.3C550.7 280 550.1 278.9 548.9 278.4S546.5 278.6 546 279.9L537.7 305.2 519.6 309 528.2 289.9 508.3 296.4 514.1 278.7 540.3 273.3C541.8 272.8 542.2 271.6 542.1 270.6 541.9 269.6 540.8 268.8 539.4 268.8L515.8 273.6 519.4 262.6 531.1 259.9C532.5 259.9 533.3 258.8 532.9 257.3 532.8 256.3 531.7 255.4 530.2 255.4L521.1 257.6 526 242.8C526.4 241.5 525.9 240.4 524.6 240S522.2 240.1 521.8 241.4L516.9 256.2 510.7 249.4C510.4 248.9 510 248.7 509.6 248.6 508.7 248.3 508.2 248.6 507.6 248.9 506.3 249.9 506.3 251.3 507.5 252.1L515.2 261.2 511.5 272.6 495.5 254.3C495.1 254.1 494.7 254 494.3 253.8 493.4 253.6 492.9 253.8 492.3 254.1 491 255.1 491 256.5 492.2 257.4L509.9 277.3 504.1 295 491.9 277.9 487.5 298.4 475.2 284.5 483.6 259.2C484 257.9 483 256.7 482.2 256.4 480.9 256 479.8 256.5 479.4 257.8L471.8 280.6 463.5 271.8 467.3 260.4C467.7 259.1 467.1 258 465.9 257.6S463.5 257.7 463.1 259L460.1 267.8 449.9 256.5C449.6 255.9 449.2 255.8 448.7 255.6 448.3 255.5 447.3 255.6 446.6 256.3 445.9 257 445.5 258.3 446.6 259.1ZM494.1 288.4L503.9 302.4 520.2 297.1 513.1 313 525.8 324.2 508.8 326 505.2 342.6 495.3 328.6 479 334 486 318.5 473.4 306.9 490.3 305.4 494.1 288.4Z" fill="rgba(216, 216, 222, 0.36)"></path><path d="M506.9 857.7L507.4 865.4 503.2 863.6C502.7 863.3 502 863.5 501.6 864.1 501.5 864.7 501.7 865.4 502.3 865.5L507.6 868 508.3 874.1 497.3 868.7C496.7 868.6 496 868.8 495.8 869.3 495.5 870 495.7 870.7 496.3 870.8L508.5 876.6 509.2 885.9 500.2 880.3 502.3 890.7 493.9 886.8 492.6 873.3C492.8 873.2 492.7 873 492.6 872.8 492.3 872.5 491.9 872.2 491.4 872.3 490.9 872.4 490.5 873 490.4 873.6L491.5 885.8 486.1 883 485.6 877.2C485.6 876.9 485.5 876.7 485.4 876.5 485.2 876.3 484.8 876.1 484.3 876.2 483.8 876.2 483.4 876.8 483.5 877.3L483.7 882 476.7 878.8C476.1 878.4 475.5 878.7 475.1 879.3 474.9 879.7 475.1 880.4 475.8 880.7L482.7 884 478.9 886.7C478.4 887.1 478.4 887.9 478.6 888.2 479 888.8 479.6 888.9 480.2 888.5L485.1 885.1 490.5 887.8 480.7 894.7C480.1 895.1 480 895.7 480.4 896.2 480.7 896.6 481.4 896.9 482 896.5L492.9 888.9 501.3 892.8 492.1 897.8 502 901.2 494.4 906.5 482.3 900.9C481.5 900.6 481 901 480.8 901.4 480.5 901.8 480.7 902.5 481.3 902.9L492.4 907.9 487.4 911.4 482 908.9C481.4 908.5 480.7 908.7 480.4 909.5 480.2 909.9 480.4 910.6 481.1 910.9L485.3 912.9 478.9 917.3C478.3 917.7 478.2 918.3 478.6 918.9S479.6 919.5 480.1 919.2L486.5 914.7 487 919.3C487 920.1 487.6 920.5 488.1 920.4 488.9 920.4 489.3 919.8 489.1 919.2L488.7 913.2 493.6 909.7 494.5 921.9C494.7 922.6 495.3 923 495.8 922.9 496.6 922.9 497 922.3 496.8 921.6L495.6 908.4 503.3 903 503 913.5 511 906.6 511.7 915.8 500.8 923.5C500.2 923.9 500.2 924.7 500.5 925 500.9 925.6 501.5 925.7 502 925.3L512.1 918.3 512.6 924.5 507.6 927.9C507.1 928.3 507 928.9 507.4 929.4 507.6 929.8 508.4 930.1 508.9 929.7L512.7 927 513.4 934.7C513.5 935.5 514 935.9 514.7 935.7 515.2 935.6 515.7 935.2 515.5 934.6L515 926.8 519.3 928.7C519.7 928.9 520.4 928.7 520.7 928.3 520.9 927.9 520.8 927.4 520.7 927.2 520.6 927 520.4 926.8 520.1 926.8L514.8 924.2 514.2 918.2 525.2 923.5C525.8 923.6 526.5 923.4 526.7 923 526.9 922.6 526.9 922.1 526.6 921.7 526.5 921.5 526.5 921.5 526.2 921.5L514 915.6 513.2 906.4 522.3 912 520.2 901.6 528.6 905.4 529.8 918.9C529.9 919.4 530.3 920 531.1 919.9 531.6 919.9 532 919.3 532.1 918.7L530.9 906.5 536.3 909.2 536.9 915.1C536.8 915.7 537.4 916.1 538.2 916.1 538.6 916 539.1 915.5 539.2 914.8L538.7 910.3 545.8 913.5C546.4 913.9 546.9 913.5 547.3 912.9 547.4 912.6 547.3 912.1 547.2 912 547.1 911.8 546.9 911.6 546.6 911.5L539.7 908.2 543.5 905.6C544.1 905.2 544.1 904.4 543.8 904L543.8 904C543.4 903.5 542.8 903.4 542.3 903.7L537.3 907.2 531.9 904.5 541.8 897.6C542.3 897.2 542.4 896.6 542.1 896S541.1 895.4 540.5 895.8L529.6 903.4 521.2 899.5 530.4 894.4 520.4 891.1 528.1 885.7 540.2 891.4C540.9 891.7 541.5 891.3 541.7 890.9 541.9 890.4 541.7 889.8 541.2 889.3L530.3 884.2 535 880.9 540.5 883.3C541.1 883.7 541.7 883.5 542 882.8 542.3 882.4 542.1 881.7 541.5 881.3L537.2 879.4 543.6 874.9C544.1 874.5 544.2 873.9 543.9 873.4S542.9 872.7 542.3 873.1L535.9 877.6 535.5 873C535.5 872.7 535.4 872.5 535.3 872.3 535 872 534.7 871.9 534.4 871.9 533.6 871.9 533.2 872.4 533.4 873.1L533.7 879.1 528.8 882.5 528 870.4C527.8 870.2 527.7 870 527.6 869.8 527.3 869.5 527 869.4 526.7 869.4 525.9 869.4 525.5 869.9 525.7 870.6L526.8 883.9 519.2 889.2 519.4 878.8 511.5 885.6 510.8 876.4 521.7 868.8C522.2 868.4 522.2 867.6 522 867.2 521.6 866.7 521 866.6 520.4 867L510.6 873.8 509.9 867.8 514.8 864.4C515.4 864 515.5 863.4 515.1 862.8S514.1 862.2 513.6 862.5L509.7 865.2 509 857.6C509.1 857.3 508.9 857.1 508.8 856.9 508.7 856.7 508.2 856.5 507.8 856.6 507.3 856.6 506.7 857 506.9 857.7ZM517.1 883.6L516.9 892.2 525 894.9 517.4 899.1 519.1 907.4 511.7 903.1 505.3 908.6 505.6 900.1 497.4 897.3 504.9 893.2 503.3 884.8 510.5 889.3 517.1 883.6Z" fill="rgba(216, 216, 222, 0.36)"></path><path d="M286 506.9L274.1 526.7 254.2 531.5 259.9 511.8 280.2 500.9C280.2 500.9 280.4 500.7 280.4 500.7 280.8 500.3 280.8 499.5 280.7 498.9 280.3 498.1 279.3 497.9 278.7 498.5L261 508.1 263.8 498.5 271.5 494.2C271.5 494.2 271.7 494 271.7 494 272.1 493.6 272.2 492.8 272 492.2 271.6 491.4 270.6 491.2 270 491.8L264.6 494.6 266.8 487.6C267 487 266.4 486 265.8 485.8 265.1 485.4 264.3 486.1 264 486.7L261.9 493.8 259.1 488.4C258.7 487.6 257.7 487.4 257.1 487.9 256.3 488.3 256.1 489.3 256.7 489.9L261 497.7 258.1 507 248.5 489.3C248.1 488.5 247.1 488.3 246.5 488.9 245.7 489.2 245.5 490.2 246.1 490.8L257 511.1 251.2 530.8 236.8 515.8 237.4 492.6C237.4 491.8 236.8 491.2 236 491.2 235.3 491.2 234.7 491.7 234.6 492.5L234.2 512.9 227.3 505.7 227.5 497.1C227.5 496.3 226.9 495.7 226.1 495.7 225.3 495.6 224.7 496.2 224.7 497L224.6 502.9 219.2 497.3C218.8 496.5 217.8 496.6 217.2 497.2 216.6 497.8 216.6 498.6 217.2 499.2L222.2 504.4 216.3 504.3C215.5 504.3 214.9 504.8 214.9 505.6S215.4 507 216.2 507L224.9 507.2 231.8 514.5 211.3 514C210.6 514 210 514.5 209.9 515.3 209.9 516.1 210.5 516.7 211.3 516.7L234.4 517.3 248.6 532.1 228.7 537 209.5 525.3C208.7 524.9 207.9 525.3 207.3 525.9 206.9 526.6 207.3 527.4 207.9 528L225.1 538.5 215.4 540.8 207.9 536.1C207.1 535.7 206.3 536.1 205.7 536.6 205.3 537.4 205.7 538.2 206 538.6L211.3 541.7 204.2 543.5C203.6 543.7 202.8 544.4 203.1 545.2 203.5 546 204.1 546.6 204.9 546.2L212 544.4 208.9 549.7C208.5 550.5 208.9 551.2 209.3 551.7 209.9 551.9 210.6 551.9 211 551.5 211 551.5 211.2 551.3 211.2 551.3L215.9 543.8 225.6 541.4 215.2 558.7C214.8 559.4 215.2 560.2 215.5 560.6 216.1 560.8 216.9 560.9 217.3 560.5 217.3 560.5 217.5 560.3 217.5 560.3L229.4 540.5 249.3 535.7 243.6 555.4 223.3 566.3C222.5 566.7 222.3 567.7 222.8 568.3 223.2 569.1 224.2 569.3 224.8 568.7L242.5 559.1 239.7 568.7 232 573C231.2 573.4 230.9 574.4 231.5 575 231.9 575.8 232.9 576 233.5 575.4L238.8 572.6 236.7 579.6C236.5 580.2 237.1 581.2 237.7 581.4 238.2 581.6 238.8 581.4 239.2 581 239.4 580.8 239.6 580.7 239.6 580.3L241.8 573.2 244.6 578.6C245 579.4 245.9 579.6 246.5 579.1 246.5 579.1 246.7 578.9 246.7 578.9 247.1 578.5 247.2 577.7 247 577.1L242.6 569.3 245.4 559.8 255 577.5C255.4 578.3 256.4 578.5 257 577.9 257 577.9 257.2 577.7 257.2 577.7 257.6 577.3 257.6 576.6 257.4 576L246.5 555.7 252.3 536 266.5 550.8 265.9 574C265.9 574.8 266.5 575.4 267.3 575.4 268 575.4 268.7 574.9 268.7 574.1L269.3 553.9 276.2 561.1 276 569.7C276 570.5 276.6 571.1 277.4 571.1S278.8 570.6 278.8 569.8L278.9 563.9 283.9 569.1C284.5 569.7 285.3 569.7 285.9 569.2 286.5 568.6 286.5 567.8 285.9 567.2L280.9 562 286.8 562.1C287.2 562.1 287.6 562.1 288 561.8S288.4 561 288.4 560.6C288.5 559.8 287.9 559.2 287.1 559.2L278.5 559 271.6 551.7 292 552.2C292.4 552.2 292.8 552.2 293.2 551.9 293.4 551.7 293.6 551.1 293.6 550.7 293.6 549.9 293 549.3 292.2 549.3L269.1 548.7 254.9 533.9 274.8 529 294.6 540.9C295.2 541.1 296 541.1 296.4 540.7 296.4 540.7 296.6 540.5 296.6 540.5 297 539.8 296.6 539 296.2 538.6L279 528.1 288.7 525.8 296.2 530.5C296.8 530.7 297.6 530.7 298 530.4 298 530.4 298.2 530.2 298.2 530.2 298.6 529.4 298.2 528.6 297.8 528.2L292.6 525.1 299.7 523.3C299.9 523.1 300.3 523.1 300.5 523 300.9 522.6 301.1 522 301 521.4 300.6 520.6 300 520 299.2 520.4L292.1 522.2 295.2 516.9C295.6 516.2 295.2 515.4 294.8 515 294 514.5 293.2 514.9 292.8 515.3L288.1 522.9 278.5 525.2 288.9 507.9C289.3 507.2 288.9 506.4 288.5 506 287.4 505.9 286.4 506.1 286 506.9Z" fill="rgba(216, 216, 222, 0.36)"></path><path d="M349.2 172.9L345.2 159.9 353.3 161.4C354.1 161.6 355.2 161 355.7 159.9 355.6 158.8 355 157.7 353.9 157.7L343.9 155.5 340.3 145.5 361.2 150.2C362.3 150.1 363.4 149.5 363.6 148.7 363.8 147.3 363.2 146.2 362.1 146.3L339 141.2 334.1 125.7 351.7 131.7 344 114.8 359.8 118.1 367.3 140.5C367.1 140.8 367.4 141.1 367.7 141.3 368.2 141.9 369.1 142.1 369.9 141.8 370.7 141.5 371.2 140.3 371.1 139.2L364.3 118.9 374.6 121.4 377.9 131.2C377.9 131.7 378.2 132 378.5 132.2 378.8 132.5 379.6 132.7 380.4 132.4 381.2 132.1 381.7 131 381.4 130.2L379.1 122.3 392.4 124.9C393.5 125.4 394.3 124.5 394.8 123.4 395 122.6 394.4 121.5 393.1 121.3L380 118.4 385.4 112.3C386.2 111.5 385.9 110.1 385.3 109.6 384.4 108.8 383.3 108.9 382.5 109.7L375.5 117.5 365.2 115 379.2 99.4C380 98.6 380 97.5 379.1 96.7 378.5 96.2 377.1 96 376.4 96.8L360.7 114.2 344.9 110.9 358.6 98.6 340.3 96.8 351.2 84.6 374.1 89.5C375.4 89.7 376.2 88.8 376.5 88 376.7 87.2 376.1 86.1 374.9 85.6L354.1 81.5 361.1 73.7 371.4 75.6C372.5 76.1 373.6 75.5 373.8 74.1 374 73.3 373.4 72.2 372 72L364.2 70.2 373.3 60.1C374.1 59.2 374.1 58.1 373.2 57.3S371.2 56.6 370.5 57.5L361.3 67.6 358.7 60C358.4 58.7 357.3 58.2 356.5 58.5 355.1 58.8 354.6 60 355.2 61L358.2 71.1 351.2 78.9 344.9 58.5C344.3 57.5 343.2 57 342.4 57.3 341 57.6 340.5 58.8 341.1 59.8L348.3 82 337.4 94.2 333.7 76.2 322.9 91.1 318 75.6 333.6 58.3C334.4 57.4 334 56.1 333.5 55.6 332.6 54.8 331.5 54.8 330.7 55.7L316.4 71.6 313.1 61.3 320.1 53.5C320.9 52.6 320.9 51.5 320 50.7 319.4 50.2 318 50 317.2 50.9L311.8 57 307.5 44.2C307.2 42.9 306.1 42.4 305 43 304.2 43.3 303.4 44.2 304 45.2L308 58.3 299.9 56.7C299.1 56.5 298 57.1 297.8 58 297.6 58.8 297.9 59.6 298.2 59.9 298.5 60.1 298.7 60.4 299.3 60.4L309.3 62.6 312.9 72.6 292 67.9C290.9 68 289.8 68.6 289.6 69.4 289.3 70.2 289.7 71 290.2 71.6 290.5 71.8 290.5 71.8 291.1 71.8L314.2 76.9 319.1 92.4 301.5 86.4 309.2 103.3 293.4 100 285.9 77.6C285.5 76.8 284.7 76 283.3 76.3 282.5 76.7 282 77.8 282.1 78.9L288.9 99.2 278.6 96.7 275.3 86.9C275.3 85.8 274.2 85.3 272.8 85.7 272 86 271.5 87.1 271.6 88.2L274.1 95.8 260.8 93.2C259.7 92.7 258.9 93.6 258.4 94.7 258.4 95.3 258.7 96.1 259 96.3 259.3 96.6 259.6 96.8 260.2 96.8L273.3 99.7 267.8 105.8C267 106.6 267.3 108 267.9 108.5L267.9 108.5C268.8 109.3 269.9 109.3 270.7 108.4L277.7 100.6 288 103.1 274 118.7C273.2 119.5 273.2 120.6 274.1 121.4S276.1 122.1 276.9 121.3L292.5 103.9 308.3 107.2 294.7 119.5 312.9 121.3 302 133.5 279.2 128.6C277.8 128.4 277 129.3 276.8 130.1 276.5 130.9 277.1 132 278.3 132.5L298.9 136.9 292.1 144.4 281.8 142.5C280.7 142 279.6 142.6 279.4 144 279.2 144.8 279.8 145.9 280.9 146.4L289 147.9 279.9 158C279.1 158.9 279.1 160 280 160.8S282 161.5 282.8 160.6L291.9 150.5 294.5 158.1C294.5 158.6 294.8 158.9 295.1 159.2 295.6 159.7 296.2 159.6 296.7 159.6 298.1 159.3 298.6 158.1 298 157.1L295 147 302 139.2 308.3 159.6C308.6 159.8 308.9 160.1 309.2 160.4 309.8 160.9 310.3 160.8 310.9 160.8 312.2 160.5 312.7 159.3 312.1 158.3L304.9 136.1 315.8 123.9 319.5 141.9 330.3 127 335.2 142.5 319.6 159.8C318.8 160.7 319.2 162 319.8 162.6 320.6 163.3 321.7 163.3 322.5 162.4L336.6 146.8 340.1 156.8 333.1 164.6C332.3 165.5 332.4 166.6 333.2 167.4S335.2 168.1 336 167.2L341.4 161.1 345.7 173.9C345.7 174.4 346 174.7 346.3 174.9 346.6 175.2 347.4 175.4 348.2 175.1 349 174.8 349.8 173.9 349.2 172.9ZM321.5 132.7L318.5 118 303.6 116.6 314.9 106.4 308.7 92.9 323 97.4 331.7 85.4 334.7 100.1 349.6 101.5 338.6 111.5 344.5 125.2 330.5 120.4 321.5 132.7Z" fill="rgba(216, 216, 222, 0.36)"></path><path d="M239.2 1000L223 983.7 222.8 977.4 235.1 970.3 240.8 973.4 246.6 995.7C246.8 996 246.8 996 246.9 996.2 247.2 996.7 247.7 997 248.6 996.8 249.3 996.4 249.6 995.9 249.4 995L244.3 975.6 252.9 980.5 255.3 989.1C255.3 989.1 255.4 989.3 255.4 989.3 255.7 989.8 256.2 990.1 257.1 990 257.7 989.9 258.2 989 258 988.2L256.6 982.5 263 986.2C263.5 986.6 264.3 986.4 264.9 985.8S265 984.1 264.3 983.5L258.1 980.1 263.6 978.5C264.5 978.3 264.9 977.4 264.7 976.6 264.5 976.1 263.8 975.5 262.9 975.7L254.4 978.1 245.6 972.9 265.1 967.7C265.9 967.5 266.4 966.6 266.3 966 265.9 965.3 265.2 964.7 264.4 964.9L242.2 971 236.4 967.6 236.4 953.8 242.2 950.4 264.5 956.2C265.2 956.4 265.9 955.9 266.1 955.2S265.9 953.7 265.2 953.5L245.6 948.5 254.5 943.3 262.8 945.6C263.6 945.8 264.3 945.3 264.7 944.4S264.5 943 263.8 942.8L257.8 941.4 264.3 937.6C265 937.2 265.1 936.2 264.7 935.5 264.3 934.8 263.5 934.6 262.8 935L256.3 938.7 257.8 933C258.2 932.1 257.8 931.4 256.8 931.4 256.1 931.2 255.3 931.6 255.1 932.3L252.9 940.7 244 945.8 249.4 926.3C249.6 925.6 249.1 924.6 248.3 924.4S246.8 924.6 246.6 925.4L240.7 947.8 234.9 951.1 222.8 944.1 222.9 937.6 239.2 921.4C239.7 920.7 239.6 919.9 239.1 919.1 238.5 918.6 237.6 918.7 236.9 919.2L222.7 933.5 222.7 923.5 229.1 917.3C229.7 916.6 229.5 915.8 229.1 915 228.5 914.7 227.5 914.6 227 915.3L222.8 919.3 222.8 911.9C222.7 911.3 222.1 910.7 221.3 910.5 220.5 910.7 219.9 911.4 219.9 912L220 919.3 215.6 915.1C215.1 914.8 214.1 914.7 213.8 915.2 213 915.7 213.1 916.3 213.5 917 213.5 917 213.6 917.2 213.6 917.2L219.9 923.6 219.9 933.5 205.6 919.4C204.9 918.8 204.1 918.6 203.6 919.2 203 919.9 203 920.5 203.3 921 203.4 921.2 203.4 921.2 203.4 921.2L220 937.6 219.9 944.1 207.7 951.2 202.2 947.9 196 925.5C195.9 924.9 195 924.5 194.4 924.5 193.6 924.7 193.1 925.6 193.3 926.5L198.5 945.9 189.8 941 187.4 932.4C187.3 931.6 186.6 931 185.9 931.4 185 931.6 184.6 932.5 184.6 933.1L186.3 938.8 180 935.1C179.3 934.9 178.4 935.1 177.8 935.8 177.7 936.1 177.8 936.8 178 937.2 178.2 937.5 178.2 937.5 178.6 937.6L184.9 941.3 179.1 943C178.3 943.2 178.1 944 178.1 944.6 178.3 944.8 178.3 944.8 178.4 945.1 178.7 945.5 179.2 945.9 179.8 945.8L188.4 943.4 197 948.4 177.6 953.6C176.8 954 176.3 954.7 176.7 955.4 176.6 955.8 176.6 955.8 176.7 956 177 956.5 177.7 956.7 178.4 956.6L200.8 950.4 206.2 953.7 206.3 967.7 200.8 970.9 178.4 965C177.6 964.8 176.7 965.3 176.5 966.1S176.8 967.8 177.6 968L197.2 973 188.5 978 179.9 976C179.2 975.8 178.5 976.2 178.3 976.9 178.1 977.7 178.5 978.4 179.2 978.6L184.9 980.1 178.4 983.9C178 984.2 177.5 985.1 177.9 985.8 178.3 986.5 179.5 986.8 180 986.5L186.5 982.8 184.9 988.5C184.8 988.8 184.7 989.2 184.9 989.5 185.2 989.9 185.5 990 185.9 990.1 186.7 990.3 187.4 989.9 187.6 989.2L190.1 980.7 198.7 975.7 193.3 995.2C193.2 995.5 193.4 995.8 193.6 996.3 193.8 996.5 193.9 996.7 194.3 996.8 195.1 997 196 996.5 196.2 995.7L202.3 973.6 207.8 970.4 219.8 977.2 220.1 983.8 203.6 1000.1C203.2 1000.6 203 1001.4 203.3 1001.9 203.5 1002.1 203.5 1002.1 203.7 1002 204.1 1002.7 205.1 1002.8 205.7 1002.1L219.9 987.8 220 998 213.7 1004.2C213.3 1004.8 213.4 1005.4 213.6 1005.9 213.6 1005.9 213.8 1006.1 213.8 1006.1 214.2 1006.8 215.2 1006.9 215.8 1006.2L220 1001.9 220.1 1009.2C220 1009.6 220.1 1009.8 220.3 1010.1 220.5 1010.5 221.1 1010.9 221.3 1010.7 222.3 1010.8 222.9 1010.1 223.1 1009.4L223 1002 227 1006.1C227.6 1006.7 228.6 1006.8 229.2 1006.1 229.6 1005.6 229.6 1004.6 229.1 1004.3L222.9 997.9 222.9 988 237.2 1002.2C237.9 1002.7 238.7 1002.6 239.4 1002.1 239.8 1001.6 239.8 1000.6 239.2 1000ZM232.1 968.5L222.7 973.9 221.3 974.8 219.9 974 210.7 968.7 209.2 967.7 209.2 966.1 209.2 955.5 209.2 953.9 210.6 953 220 947.6 221.4 946.7 222.9 947.5 232 952.8 233.4 953.6 233.6 955.5 233.6 966 233.6 967.7 232.1 968.5Z" fill="rgba(216, 216, 222, 0.36)"></path><path d="M286.7 438.8L279.8 426.7 289.2 426.4C290.2 426.5 291.2 425.6 291.5 424.2 291.2 423 290.2 421.9 289.3 421.9L276.9 421.9 270.6 410.6 295.7 410.7C297.3 410.6 298.3 409.7 298 408.4 298.3 407.1 297.3 406 295.7 406.1L268.1 406.1 262.1 396 275.6 372.5 286 372.3 300.4 398C300.8 398.2 301.2 398.5 301.6 398.7 301.9 398.9 302.9 399 303.5 398.8 305 398.1 305.3 396.7 304.3 395.7L291.1 372.2 303.9 372.3 311 384.1C310.7 384.5 311.1 384.7 311.5 384.9 312.3 385.4 313.3 385.4 314.1 384.9 314.9 384.3 315.2 383 314.9 381.7L309.1 372.2 325 372.2C326 372.2 327 371.3 327.3 369.9 327 368.7 326.1 367.7 325.1 367.6L310.1 367.7 314.8 359.6C315.4 358.5 314.7 357 314 356.6 312.8 355.9 311.2 356 310.5 357.2L304.6 367.6 291.8 367.5 304.2 345.9C304.9 344.7 304.6 343.5 303.4 342.8 302.2 342.2 301 342.5 300.4 343.7L286.6 367.6 275.7 367.9 262.1 344.2 267.2 335.4 295.5 335.2C296.9 335.5 298.1 334.2 297.8 333 298.1 331.6 296.9 330.9 295.6 330.6L269.9 330.7 276.3 319.6 289 319.7C290 319.8 291.3 318.5 291.3 317.5S290.1 315.2 288.7 314.9L278.9 314.9 286.7 301.5C287.4 300.3 286.6 298.9 285.5 298.2 284.7 297.8 283.1 297.9 282.5 299L274.7 312.5 269.4 303.8C268.9 303 267.7 302.4 266.3 303.1 265.5 303.6 265 305.4 265.5 306.2L272 317.1 265.6 328.3 252.8 306.1C251.8 305 250.7 304.3 249.3 305.1 248.4 305.6 247.9 307.4 248.5 308.2L263 332.9 257.9 341.8 230.6 342 225.4 332.3 239.1 308.5C239.8 307.3 239.4 306.1 238.3 305.4 237.1 304.8 235.5 304.9 234.9 306L222.5 327.6 215.9 316.7 221.9 306.3C222.6 305.1 222.2 303.9 221.1 303.2 219.9 302.6 218.7 302.9 218.1 304L213.4 312.1 206 299.2C205.4 298.3 203.7 297.8 202.9 298.4 201.8 299.3 201.1 300.5 202.1 301.5L209.6 315.1 198.9 315.1C197.7 315.4 196.6 316.3 196.6 317.3 196.5 318.3 197.1 319.2 197.8 319.6 197.8 319.6 198.2 319.8 198.8 319.7L212.6 319.9 219.1 330.8 192.2 331.2C190.8 330.9 189.8 331.9 189.9 333.5 190 334.1 190.2 334.7 191 335.1 191.3 335.3 191.7 335.6 192.1 335.8L221.6 335.3 226.7 344.4 213.2 367.9 201.4 367.8 187.5 343.9C186.8 342.4 185.4 342.2 184.3 343.1 183.1 343.4 182.8 344.8 183.5 346.2L196.2 367.9 183.3 368.1 177.1 357.4C176.6 356.6 175.2 356.3 174 356.6 172.9 357.6 172.3 358.7 173.2 359.8L177.7 368 163.8 368.2C162.4 367.9 161.7 369.1 161.4 370.4 161.6 371 162.1 371.9 162.9 372.3 162.9 372.3 163.3 372.5 163.7 372.8L178.6 372.6 173.1 382.3C172.7 383 172.8 384.6 173.9 385.3 175.1 386 176.5 385.3 176.9 384.5L183.8 372.5 196.8 372.3 183.3 395.8C182.6 397 183.3 398.4 184.5 399.1S186.8 399.4 187.5 398.2L202.3 372.4 213.1 372.4 226.6 396.1 220.9 406.1 192.2 406.1C191 406.4 190 407.3 189.7 408.7 189.8 409.3 190.4 410.1 191.2 410.6 191.5 410.8 191.9 411 192.5 410.9L218.2 410.8 211.8 421.9 198.8 422.2C197.9 422.1 196.8 423.1 196.5 424.4 196.9 425.7 197.8 426.7 198.8 426.8L209.1 426.6 202.1 438.9C201.6 439.7 202.1 441.5 202.9 441.9 204 442.6 205.9 442.1 206.3 441.3L213.4 429 218 437.8C218.4 438.1 218.8 438.3 219.2 438.5 220 438.9 221 439 221.6 438.8 222.6 437.9 222.9 436.5 222.6 435.3L216 424.4 222.5 413.2 235.3 435.5C236 436.9 237.4 437.2 238.2 436.6 239.7 435.9 239.9 434.5 239.6 433.3L225.1 408.6 230.9 398.6 258.2 398.4 263.6 407.6 248.8 433.5C248.1 434.6 248.4 435.8 249.6 436.5 250.7 437.1 252 436.8 252.6 435.7L266.1 412.2 272.4 423.5 265.6 435.4C265.1 436.2 265.6 438 266.8 438.7 267.9 439.3 269.4 438.6 269.8 437.9L275.3 428.2 282.8 441.2C283.1 441.4 283.1 441.4 283.5 441.6 284.3 442.1 285.3 442.1 285.9 442 286.9 441 287.2 439.7 286.7 438.8ZM233.5 393.9L230.6 393.8 229.3 391.5 218.3 372.3 217 370.1 218.3 367.8 229.2 348.9 230.5 346.6 233.1 346.5 255.2 346.4 257.8 346.4 259.5 348.9 270.1 367.8 271.7 370.3 270.4 372.6 259.6 391.5 258.2 393.8 255.3 393.6 233.5 393.9Z" fill="rgba(216, 216, 222, 0.36)"></path><path d="M531 650.9L528 678.4 508.6 693.7 505 669.3 521.7 647.2C521.7 647.2 521.8 646.9 521.8 646.9 522.1 646.3 521.7 645.5 521.2 644.9 520.4 644.2 519.2 644.5 518.9 645.4L504.4 664.7 502.6 652.9 508.9 644.3C508.9 644.3 509 644 509 644 509.3 643.4 508.9 642.5 508.4 642 507.6 641.3 506.4 641.5 506 642.5L501.6 648.2 500.4 639.5C500.3 638.8 499.2 638 498.5 638 497.4 638 496.9 639.2 497 639.9L498.2 648.7 492.4 644.2C491.6 643.5 490.4 643.8 490.1 644.7 489.4 645.5 489.6 646.7 490.6 647.1L499.2 653.4 500.6 665.1 481.3 650.6C480.5 649.9 479.3 650.1 478.9 651.1 478.3 651.9 478.5 653 479.4 653.4L501.5 670.1 505.1 694.5 481.9 685.2 470.9 659.7C470.5 658.8 469.6 658.4 468.7 658.8 467.8 659.2 467.5 660.1 467.8 661L477.5 683.5 466.4 679.1 462.3 669.5C461.9 668.7 461 668.3 460.1 668.7 459.2 669.1 458.9 670 459.2 670.8L462 677.3 453.4 673.9C452.6 673.2 451.6 673.9 451.2 674.8 450.8 675.8 451.2 676.6 452.1 677L460.2 680.2 453.7 683C452.8 683.4 452.5 684.3 452.8 685.2S454.1 686.4 455 686L464.5 681.9 475.7 686.3 453.2 696.1C452.3 696.4 451.9 697.4 452.3 698.2 452.7 699.1 453.6 699.5 454.5 699.1L480 688.1 502.9 697.2 483.6 712.5 456.9 709.4C455.8 709.3 455.1 710.1 454.8 711 454.7 712.1 455.5 712.8 456.4 713.1L480.5 715.9 471.1 723.2 460.5 721.9C459.4 721.9 458.7 722.7 458.4 723.6 458.3 724.6 459.1 725.3 459.7 725.6L467 726.3 460.1 731.8C459.6 732.3 459.1 733.6 459.9 734.2 460.7 734.9 461.6 735.3 462.3 734.5L469.2 728.9 468.4 736.2C468.4 737.2 469.2 737.9 469.8 738.2 470.5 738.1 471.4 737.7 471.7 737.1 471.7 737.1 471.8 736.8 471.8 736.8L473.1 726.2 482.5 718.8 479.8 742.9C479.7 743.9 480.5 744.6 481.1 744.8 481.9 744.8 482.8 744.4 483 743.8 483 743.8 483.1 743.5 483.1 743.5L486.2 716 505.5 700.7 509.1 725.1 492.4 747.2C491.7 748 492 749.1 492.9 749.5 493.7 750.2 494.9 749.9 495.3 749L509.8 729.7 511.5 741.5 505.2 750.1C504.6 750.9 504.8 752.1 505.7 752.4 506.5 753.1 507.7 752.9 508.1 751.9L512.5 746.2 513.7 754.9C513.8 755.6 514.9 756.5 515.6 756.4 516.4 756.3 516.9 755.8 517.2 755.2 517.3 754.9 517.4 754.6 517.3 754.2L516.1 745.4 521.8 749.9C522.6 750.6 523.8 750.3 524.2 749.4 524.2 749.4 524.3 749.1 524.3 749.1 524.5 748.4 524.2 747.6 523.7 747L515.1 740.7 513.3 728.9 532.6 743.4C533.4 744.1 534.6 743.8 535 742.9 535 742.9 535.1 742.6 535.1 742.6 535.4 742 535 741.1 534.5 740.6L512.4 723.9 508.8 699.5 531.8 708.6 542.8 734.2C543.1 735 544.1 735.4 544.9 735 545.8 734.7 546.2 733.7 545.8 732.9L536.4 710.5 547.6 714.9 551.7 724.4C552 725.3 553 725.7 553.8 725.3S555.1 724 554.7 723.1L551.9 716.6 559.9 719.8C560.9 720.2 561.7 719.8 562.1 718.9 562.5 718 562.1 717.1 561.2 716.7L553.1 713.5 559.6 710.7C560 710.5 560.5 710.4 560.7 709.7S560.8 708.7 560.6 708.3C560.2 707.4 559.3 707 558.4 707.4L548.9 711.5 537.8 707.1 560.3 697.4C560.7 697.2 561.1 697 561.4 696.4 561.5 696.1 561.4 695.3 561.2 694.9 560.9 694 559.9 693.6 559.1 694L533.5 705 510.6 695.9 530 680.7 557.4 683.7C558.2 683.6 559.1 683.2 559.3 682.6 559.3 682.6 559.4 682.3 559.4 682.3 559.5 681.3 558.7 680.6 558.1 680.3L534 677.6 543.4 670.2 554 671.6C554.8 671.5 555.6 671.1 555.9 670.5 555.9 670.5 556 670.2 556 670.2 556.1 669.1 555.2 668.5 554.6 668.2L547.4 667.5 554.2 662C554.4 661.7 554.8 661.5 554.9 661.2 555.2 660.5 555.1 659.8 554.6 659.2 553.8 658.6 552.9 658.2 552.2 659L545.3 664.5 546.1 657.3C546.1 656.2 545.3 655.5 544.7 655.3 543.6 655.2 543 656 542.7 656.7L541.4 667.3 532 674.6 534.7 650.6C534.8 649.6 534 648.9 533.3 648.6 532.1 649.2 531.1 649.9 531 650.9Z" fill="rgba(216, 216, 222, 0.36)"></path><path d="M136.7 864.1L129.3 861.7 132.6 858.4C133 858.1 133.1 857.4 132.7 856.8 132.2 856.4 131.5 856.4 131.2 856.9L126.8 860.8 121 859.2 130.1 851C130.4 850.5 130.5 849.8 130.2 849.4 129.6 848.8 128.9 848.8 128.6 849.3L118.5 858.4 109.7 855.6 118.3 849.3 107.8 847.3 114.6 841 127.6 845C127.6 845.2 127.8 845.1 128.1 845.1 128.5 845 128.9 844.7 129 844.2 129.1 843.7 128.8 843.1 128.2 842.8L116.5 839.2 121.1 835.2 126.7 837C127 837.1 127.2 837.1 127.4 837 127.6 837 128 836.7 128.1 836.2 128.2 835.7 127.9 835.1 127.4 835L123 833.5 128.6 828.1C129.2 827.7 129.1 827.1 128.7 826.5 128.4 826.1 127.7 826 127.1 826.6L121.4 831.8 120.4 827.2C120.3 826.5 119.5 826.3 119.1 826.4 118.4 826.5 118.1 827 118.3 827.7L119.6 833.5 115 837.5 112.4 825.8C112.2 825.2 111.7 824.8 111 825 110.6 825.1 110.1 825.6 110.2 826.3L113.1 839.3 106.3 845.6 105.1 835.2 98.2 843.1 96.2 834 106 825C106.6 824.4 106.4 823.7 106.1 823.3 105.8 823 105.1 822.9 104.5 823.2L95.7 831.6 94.4 825.7 98.7 821.6C99.3 821.2 99.3 820.5 98.8 820 98.5 819.6 97.8 819.5 97.2 820.1L93.8 823.1 92.1 815.5C91.9 814.9 91.4 814.6 90.8 814.7S89.8 815.4 89.9 816L91.6 823.6 87.2 822.3C86.5 822 85.9 822.4 85.8 822.9 85.5 823.6 85.8 824.2 86.5 824.3L92.2 826.2 93.5 832.1 82 828.3C81.3 828.2 80.7 828.6 80.5 829.1 80.2 829.8 80.6 830.4 81.3 830.5L94 834.5 96.1 843.6 86.5 839.3 89.8 849.3 81 846.5 78.1 833.5C78 832.8 77.2 832.5 76.8 832.6 76.1 832.8 75.8 833.3 75.9 834L78.6 845.9 72.7 844 71.4 838.2C71.3 837.5 70.7 837.2 70.1 837.3 69.7 837.4 69.1 838 69.2 838.6L70.3 843.2 62.9 841C62.2 840.7 61.6 841 61.5 841.7 61.4 842.2 61.5 842.9 62.2 842.9L69.6 845.4 66.2 848.7C65.9 849 65.8 849.7 66.1 850.1 66.4 850.4 66.9 850.6 67.1 850.5 67.3 850.5 67.6 850.4 67.7 850.1L72.1 846.2 77.9 847.9 68.8 856.1C68.5 856.6 68.4 857.3 68.7 857.7 69 858.1 69.5 858.2 69.9 858.1 70.2 858 70.2 858 70.3 857.8L80.4 848.7 89.2 851.5 80.6 857.7 91 859.7 84.3 866 71.3 862.1C70.8 862 70.2 862.1 69.9 862.9 69.8 863.4 70.1 864 70.7 864.3L82.4 867.8 77.8 871.8 72.2 870.1C71.7 869.8 71 870.1 70.8 870.9 70.6 871.4 71 872 71.5 872.3L75.9 873.6 70.3 878.9C69.7 879.3 69.8 880 70.2 880.6 70.5 880.7 70.9 880.9 71.2 880.8 71.4 880.8 71.6 880.7 71.8 880.4L77.4 875.3 78.5 879.9C78.6 880.5 79.4 880.8 79.8 880.7L79.8 880.7C80.4 880.5 80.8 880 80.6 879.4L79.3 873.5 83.9 869.5 86.5 881.2C86.7 881.9 87.2 882.2 87.8 882.1S88.8 881.4 88.7 880.8L85.8 867.7 92.6 861.4 93.8 871.9 100.6 864 102.7 873.1 92.9 882.1C92.3 882.7 92.4 883.3 92.8 883.7 93.1 884.1 93.8 884.2 94.4 883.8L103.3 875.7 104.5 881.3 100.2 885.5C99.6 885.8 99.5 886.5 100.1 887.1 100.4 887.5 101.1 887.5 101.7 887.2L105.1 883.9 106.8 891.5C106.9 892.2 107.5 892.5 108.1 892.3S109.1 891.7 109 891L107.3 883.4 111.7 884.7C111.9 884.9 112.1 884.8 112.4 884.8 112.8 884.7 113 884.4 113.1 884.2 113.4 883.4 113.1 882.8 112.4 882.7L106.7 880.8 105.4 875 116.9 878.8C117.1 878.7 117.4 878.7 117.6 878.6 118 878.5 118.2 878.3 118.4 878 118.6 877.2 118.3 876.6 117.6 876.6L104.8 872.6 102.8 863.5 112.4 867.7 109 857.8 117.9 860.6 120.8 873.6C120.9 874.2 121.7 874.5 122.1 874.4 122.8 874.3 123.1 873.7 122.9 873.1L120.3 861.4 126.2 863 127.5 868.9C127.6 869.5 128.1 869.9 128.8 869.7S129.8 869.1 129.6 868.4L128.6 863.8 136 866.1C136.2 866.2 136.4 866.2 136.7 866.2 136.9 866.1 137.3 865.8 137.4 865.3 137.5 864.8 137.3 864.2 136.7 864.1ZM108.8 863.7L100.9 860.2 95.3 866.7 94.3 858.1 86 856.5 92.8 851.4 90.1 843.3 97.9 846.8 103.5 840.3 104.5 848.7 112.9 850.5 106 855.5 108.8 863.7Z" fill="rgba(216, 216, 222, 0.36)"></path></g><defs><mask id="SvgjsMask3712"><rect width="550" height="1000" fill="#ffffff"></rect></mask><filter id="SvgjsFilter3713"><feGaussianBlur stdDeviation="1"></feGaussianBlur></filter></defs></svg>